<svg id="Layer_1" data-name="Layer 1" xmlns="http://www.w3.org/2000/svg" viewBox="0 0 63.75 63.83"><defs><style>.cls-1{fill:#ffc603;}</style></defs><title>icon</title><path class="cls-1" d="M50,.09a3.11,3.11,0,0,1,3,3.57,3,3,0,0,1-3.25,3,3.1,3.1,0,0,1-3.19-3.56C46.67,1.3,47.84.14,50,.09Z" transform="translate(-0.19 -0.09)"/><path class="cls-1" d="M47.76,13.54A2.18,2.18,0,0,1,49.65,16a2.2,2.2,0,0,1-2.35,2.34,2.29,2.29,0,0,1-2.39-2.75C45.06,14.26,46,13.42,47.76,13.54Z" transform="translate(-0.19 -0.09)"/><path class="cls-1" d="M63,19.66c0,1.34-.53,2-1.39,2.06A1.57,1.57,0,0,1,59.86,20a1.51,1.51,0,0,1,1.65-1.44A1.37,1.37,0,0,1,63,19.66Z" transform="translate(-0.19 -0.09)"/><path class="cls-1" d="M32.23,63.92A31.87,31.87,0,0,1,31.88.18c2.83,0,5.31-.08,3.57,4.11a4.38,4.38,0,0,0,2.17,5.59c1.67,1,1.84,1.94,1.21,3.74-1.28,3.64-.7,7.11,2.22,9.84a8.48,8.48,0,0,0,9.57,1.83c1.89-.79,2.69-.21,3.68,1.29a4.78,4.78,0,0,0,6.33,2c2.9-1.25,3.19.3,3.29,2.61C64.67,48.83,50.18,63.85,32.23,63.92ZM50,30.69c-1.14-1.28-2.17-1.33-3.69-1-5.93,1.12-11.68-3.16-11.88-9.1-.1-3,.48-5.86-2.13-8.14a2.54,2.54,0,0,1-.51-2.14c.69-2.72-1-2.46-2.67-2.31C16,9.09,6.23,20.86,7.06,34.49c.78,13,12.15,23,25.68,22.58A24.31,24.31,0,0,0,56.11,32.21C53.71,32.79,51.53,32.41,50,30.69Z" transform="translate(-0.19 -0.09)"/><path class="cls-1" d="M13.29,28.11C13.58,25.57,15,24,17.74,24a3.93,3.93,0,0,1,4.18,4.09,4,4,0,0,1-4.26,4.42C15,32.56,13.46,31,13.29,28.11Z" transform="translate(-0.19 -0.09)"/><path class="cls-1" d="M40.21,41.4c2.28.29,3.56,1.54,3.4,3.85A3.19,3.19,0,0,1,40,48.48c-2.32-.09-3.52-1.5-3.39-3.8S38.15,41.55,40.21,41.4Z" transform="translate(-0.19 -0.09)"/><path class="cls-1" d="M20.35,40c1.9.06,3,1.14,3,2.89a2.61,2.61,0,0,1-2.74,2.74,2.59,2.59,0,0,1-2.94-2.85C17.7,41,18.74,40.16,20.35,40Z" transform="translate(-0.19 -0.09)"/><path class="cls-1" d="M26.88,16.74c1.56,0,2.26.89,2.28,2.06A2,2,0,0,1,26.83,21,2,2,0,0,1,25,18.7,1.86,1.86,0,0,1,26.88,16.74Z" transform="translate(-0.19 -0.09)"/><path class="cls-1" d="M33.51,31.79c-.08,1.21-.61,2.1-1.9,2.17a1.9,1.9,0,0,1-2.25-2.12,1.85,1.85,0,0,1,2-2C32.7,29.82,33.31,30.59,33.51,31.79Z" transform="translate(-0.19 -0.09)"/></svg>